<svg width="106" height="15" viewBox="0 0 106 15" fill="none" xmlns="http://www.w3.org/2000/svg">
<path d="M9.84842 10.6625C9.84842 8.37828 8.42831 7.57681 6.44816 6.93564C4.66802 6.37461 3.56794 6.05402 3.56794 4.87185C3.56794 3.58951 4.64802 3.04852 5.86811 3.04852C7.34823 3.04852 8.58832 3.48932 8.88834 3.58951L9.44839 1.90642C9.00835 1.68602 7.42823 1.12499 5.7081 1.12499C2.84788 1.12499 1.08775 2.58767 1.08775 5.05219C1.08775 8.83912 5.14806 8.57864 6.72818 9.78085C7.14821 10.1014 7.34823 10.4821 7.34823 11.0231C7.34823 12.1452 6.36815 12.9466 4.82803 12.9466C3.1479 12.9466 1.96781 12.2854 1.7678 12.1852L0.927734 13.8283C1.02774 13.9284 2.54786 14.8501 4.96804 14.8501C8.08828 14.8501 9.84842 13.2873 9.84842 10.6625Z" fill="#0033AA"/>
<path d="M17.4448 14.1889L16.9447 12.8064C16.8047 12.8465 16.1247 13.1069 15.3646 13.1069C14.3645 13.1069 14.3045 12.4658 14.3045 11.6843V6.7553H16.9247L17.1648 5.13233H14.3045V2.10679L12.2244 2.46745L11.8844 5.13233L10.2842 5.43288V6.7553H11.8844V11.3637C11.8844 12.6661 11.9244 13.688 12.6244 14.3091C13.0244 14.6698 13.6445 14.8902 14.5446 14.8902C16.1447 14.8902 17.2248 14.2891 17.4448 14.1889Z" fill="#0033AA"/>
<path d="M25.7235 14.6698V8.69886C25.7235 6.59501 25.6635 4.93197 22.6433 4.93197C20.8432 4.93197 19.123 5.69336 18.943 5.77351L19.3631 7.15604C19.5831 7.09593 20.7632 6.7553 21.8232 6.7553C23.2233 6.7553 23.4034 7.25622 23.4034 8.35824V8.85916C21.2432 8.97938 18.123 8.91927 18.123 11.9047C18.123 13.9284 19.283 14.8702 20.7632 14.8702C22.2633 14.8702 23.3034 13.8283 23.5234 13.5878L23.7034 14.6698H25.7235ZM23.4034 12.3856C23.2233 12.5259 22.6233 13.127 21.7232 13.127C21.0632 13.127 20.4431 12.8665 20.4431 11.8046C20.4431 10.5222 21.3632 10.2016 23.4034 10.0614V12.3856Z" fill="#0033AA"/>
<path d="M36.0746 14.6698V8.45842C36.0746 6.9156 35.9946 4.93197 33.3744 4.93197C31.9943 4.93197 30.6542 5.95384 30.0942 6.39464L29.9142 5.13233H27.834V14.6698H30.2542V7.79721C30.6342 7.55677 31.5743 6.93564 32.4544 6.93564C33.5345 6.93564 33.6545 7.69703 33.6545 8.89923V14.6698H36.0746Z" fill="#0033AA"/>
<path d="M46.8172 9.84096C46.8172 6.7553 45.6171 4.93197 43.4569 4.93197C42.3168 4.93197 41.2568 5.63325 40.6167 6.09409V0.563965L38.1965 0.924625V14.6698H40.2967L40.4567 13.5277C40.5967 13.7281 41.5768 14.8702 43.1169 14.8702C45.2971 14.8702 46.8172 13.0669 46.8172 9.84096ZM44.297 9.98121C44.297 11.9248 43.5969 12.8665 42.5569 12.8665C41.4368 12.8665 40.7967 12.1251 40.6167 11.8847V7.63692C40.8767 7.45659 41.6168 6.9156 42.4969 6.9156C43.6769 6.9156 44.297 7.81725 44.297 9.98121Z" fill="#0033AA"/>
<path d="M51.1002 2.12683C51.1002 1.36543 50.5001 0.744295 49.7401 0.744295C48.98 0.744295 48.36 1.36543 48.36 2.12683C48.36 2.88822 48.98 3.50936 49.7401 3.50936C50.5001 3.50936 51.1002 2.86819 51.1002 2.12683ZM50.9402 14.6698V5.13233H48.52V14.6698H50.9402Z" fill="#0033AA"/>
<path d="M60.3995 13.668L59.6994 12.3856C59.2994 12.5459 58.5193 12.9466 57.4592 12.9466C55.8991 12.9466 55.1591 11.9047 55.1591 9.90107C55.1591 7.77718 55.9791 6.7553 57.4793 6.7553C58.3393 6.7553 59.2994 6.99574 59.6394 7.09593L60.1995 5.69336C59.9794 5.53307 58.5593 4.93197 56.9992 4.93197C54.179 4.93197 52.6389 6.87552 52.6389 9.98121C52.6389 13.2472 54.239 14.8702 56.8992 14.8702C58.7393 14.8702 60.1995 13.8483 60.3995 13.668Z" fill="#0033AA"/>
<path d="M75.7483 11.0432C75.7483 9.01945 74.6482 7.99758 72.6681 7.79721C74.5082 7.49666 75.4483 6.41468 75.4483 4.63141C75.4483 1.3454 72.6081 1.30532 70.1679 1.30532H66.4676V14.6698H69.7478C72.088 14.6698 72.7881 14.5897 73.5881 14.2691C74.9482 13.7281 75.7483 12.6261 75.7483 11.0432ZM73.0081 4.91193C73.0081 6.43472 72.288 6.99574 69.9679 6.99574H68.9478V3.06855H70.2279C71.428 3.06855 71.868 3.12866 72.308 3.38914C72.7681 3.66965 73.0081 4.25072 73.0081 4.91193ZM73.1681 10.7226C73.1681 11.7044 72.7681 12.3055 72.168 12.606C71.608 12.8665 70.9479 12.8865 69.8679 12.8865H68.9478V8.69886H70.2279C71.408 8.69886 71.828 8.75898 72.248 8.97938C72.8281 9.27993 73.1681 9.84096 73.1681 10.7226Z" fill="#0033AA"/>
<path d="M84.6273 14.6698V8.69886C84.6273 6.59501 84.5673 4.93197 81.547 4.93197C79.7469 4.93197 78.0268 5.69336 77.8468 5.77351L78.2668 7.15604C78.4868 7.09593 79.6669 6.7553 80.727 6.7553C82.1271 6.7553 82.3071 7.25622 82.3071 8.35824V8.85916C80.1469 8.97938 77.0267 8.91927 77.0267 11.9047C77.0267 13.9284 78.1868 14.8702 79.6669 14.8702C81.167 14.8702 82.2071 13.8283 82.4271 13.5878L82.6071 14.6698H84.6273ZM82.3071 12.3856C82.1271 12.5259 81.527 13.127 80.627 13.127C79.9669 13.127 79.3469 12.8665 79.3469 11.8046C79.3469 10.5222 80.2669 10.2016 82.3071 10.0614V12.3856Z" fill="#0033AA"/>
<path d="M94.9784 14.6698V8.45842C94.9784 6.9156 94.8984 4.93197 92.2782 4.93197C90.8981 4.93197 89.558 5.95384 88.9979 6.39464L88.8179 5.13233H86.7378V14.6698H89.1579V7.79721C89.538 7.55677 90.478 6.93564 91.3581 6.93564C92.4382 6.93564 92.5582 7.69703 92.5582 8.89923V14.6698H94.9784Z" fill="#0033AA"/>
<path d="M105.761 14.6698L101.761 9.68066L105.501 5.13233H102.941L99.5204 9.38011V0.563965L97.1003 0.924625V14.6698H99.5204V10.1816L102.981 14.6698H105.761Z" fill="#0033AA"/>
</svg>
