<svg width="22" height="23" viewBox="0 0 22 23" fill="none" xmlns="http://www.w3.org/2000/svg">
<path fill-rule="evenodd" clip-rule="evenodd" d="M11.0003 0.488398C10.9328 0.464311 10.8598 0.452317 10.7839 0.454946C8.9365 0.518948 7.32196 1.30831 6.07748 2.60715C5.01179 3.70499 4.36172 5.2598 4.11558 6.72371C4.11296 6.73933 4.11097 6.75505 4.10962 6.77083L4.00204 8.03133L4.0008 8.04908L3.99695 8.11954C3.99344 8.18028 3.98781 8.27046 3.97966 8.38183C3.96324 8.60624 3.93665 8.91651 3.89613 9.25973C3.8104 9.98594 3.67723 10.7193 3.50426 11.1414C3.35078 11.516 3.08073 11.9584 2.70168 12.5748C2.61626 12.7137 2.52626 12.8601 2.43308 13.0134C1.95511 13.7998 1.40676 14.7526 1.02378 15.8335C0.994946 15.9149 0.964606 15.9969 0.932636 16.0829C0.932635 16.0829 0.932637 16.0829 0.932636 16.0829C0.928068 16.0952 0.923464 16.1076 0.91883 16.12L0.908229 16.1485C0.721698 16.6497 0.489968 17.2722 0.500336 18.0171C0.509219 18.6551 1.02889 19.1675 1.66689 19.1675H7.08662C7.58895 20.8537 9.15044 22.0835 11.0005 22.0835C12.8505 22.0835 14.412 20.8537 14.9143 19.1675H20.3336C20.9716 19.1675 21.4912 18.6551 21.5001 18.0171C21.5105 17.2718 21.2786 16.649 21.0919 16.1475L21.0813 16.119C21.0443 16.0197 21.0095 15.926 20.9766 15.8332C20.6025 14.7782 20.0892 13.8348 19.6181 13.0358C19.4563 12.7613 19.3015 12.507 19.1587 12.2721L19.1579 12.2708C18.8678 11.794 18.6342 11.4092 18.4606 11.0621C18.2879 10.7165 18.1824 10.0601 18.1477 9.34048C18.1437 9.25686 18.1223 9.17821 18.0871 9.10786C18.0561 8.82546 18.0348 8.57261 18.0209 8.38183C18.0127 8.27057 18.0071 8.18028 18.0036 8.11954L17.9997 8.04908L17.9985 8.03133L17.8909 6.77083C17.8899 6.75899 17.8885 6.74719 17.8868 6.73544C17.8865 6.73349 17.8862 6.73153 17.8859 6.72957C17.8856 6.72762 17.8853 6.72566 17.885 6.72371C17.6388 5.25984 16.9888 3.70507 15.9231 2.60724C14.6787 1.30834 13.0641 0.518949 11.2166 0.454946C11.1407 0.452317 11.0677 0.464311 11.0003 0.488398ZM8.32663 19.1675C8.77691 20.1974 9.80521 20.9168 11.0005 20.9168C12.1957 20.9168 13.224 20.1974 13.6743 19.1675H8.32663ZM16.9917 9.56468C16.9686 9.51254 16.9528 9.45611 16.9458 9.39652C16.9028 9.03198 16.8747 8.70391 16.8573 8.46697C16.8486 8.3485 16.8427 8.25281 16.8389 8.18674L16.8388 8.18499L16.8353 8.12167L16.7305 6.89416C16.5101 5.6077 15.9418 4.30081 15.0848 3.41862L15.0819 3.41563C14.0301 2.31727 12.696 1.67356 11.1762 1.62091C11.1146 1.61878 11.0554 1.60714 11.0003 1.58746C10.9451 1.60714 10.886 1.61878 10.8243 1.62091C9.30454 1.67356 7.97042 2.31727 6.91861 3.41563L6.91571 3.41862C6.05875 4.30081 5.49041 5.6077 5.27 6.89416L5.16524 8.12167L5.16178 8.18499L5.16168 8.18674C5.15787 8.25281 5.15189 8.3485 5.14322 8.46697C5.12588 8.70391 5.09779 9.03198 5.05475 9.39652C4.96872 10.1253 4.8229 11.0004 4.5838 11.5838C4.39007 12.0566 4.06889 12.5788 3.71693 13.1511L3.69547 13.186C3.60986 13.3252 3.5214 13.469 3.43004 13.6193C2.95999 14.3927 2.4644 15.2609 2.12345 16.2231C2.0873 16.3252 2.0493 16.4273 2.01311 16.5246L2.01228 16.5268C1.81707 17.0516 1.65978 17.4898 1.66689 18.0009L20.3336 18.0009C20.3407 17.4894 20.1833 17.051 19.9879 16.5259L19.987 16.5236L19.9866 16.5225C19.9506 16.4256 19.913 16.3247 19.877 16.2231C19.5401 15.2729 19.0709 14.4047 18.6131 13.6283C18.4557 13.3613 18.3047 13.1131 18.1612 12.8772L18.1518 12.8618C17.8729 12.4033 17.6146 11.9788 17.4171 11.5838C17.1475 11.0445 17.0349 10.2561 16.9917 9.56468Z" fill="#0062E1"/>
</svg>
