<svg width="22" height="22" viewBox="0 0 22 22" fill="none" xmlns="http://www.w3.org/2000/svg">
<path d="M19.0852 1.07944C19.083 0.757282 18.8201 0.497863 18.498 0.500013C18.1758 0.502163 17.9164 0.765067 17.9186 1.08723L17.9323 3.15445C16.7307 2.10793 15.302 1.34358 13.7508 0.926913C11.7265 0.383143 9.58583 0.456318 7.60332 1.13706C5.62082 1.8178 3.88678 3.07508 2.62348 4.74775C1.36018 6.42041 0.625173 8.43224 0.512703 10.5253L0.512539 10.5288C0.473082 11.3536 0.52682 12.1803 0.672722 12.993C0.729644 13.3101 1.03285 13.5211 1.34994 13.4641C1.66704 13.4072 1.87796 13.104 1.82103 12.7869C1.69074 12.0611 1.64268 11.3228 1.67779 10.5862C1.7781 8.72579 2.43156 6.93765 3.55446 5.45088C4.6777 3.96365 6.2195 2.84576 7.98221 2.24049C9.74493 1.63522 11.6482 1.57015 13.4482 2.05364C14.8139 2.42048 16.0728 3.09043 17.1347 4.00695L16.189 4.01167C16.1657 4.01179 16.1428 4.01326 16.1203 4.01602L15.0213 4.02335C14.6992 4.02549 14.4398 4.2884 14.4419 4.61056C14.4441 4.93272 14.707 5.19213 15.0291 5.18999L18.5281 5.16666C18.6829 5.16589 18.8309 5.10369 18.9398 4.99374C19.0486 4.8838 19.1093 4.73512 19.1086 4.58041L19.0969 2.24708C19.0968 2.22382 19.0953 2.20089 19.0925 2.17836L19.0852 1.07944Z" fill="#0062E1"/>
<path d="M5.81159 18.105C5.83487 18.1048 5.85782 18.1034 5.88037 18.1006L6.97921 18.0933C7.30137 18.0911 7.56079 17.8282 7.55864 17.5061C7.5565 17.1839 7.29359 16.9245 6.97143 16.9266L3.47243 16.95C3.32015 16.9507 3.1818 17.0098 3.07839 17.1058C3.07218 17.1116 3.06609 17.1175 3.06012 17.1236C2.95146 17.2337 2.89098 17.3815 2.89202 17.5362L2.90368 19.8695C2.90379 19.8928 2.90527 19.9158 2.90803 19.9383L2.91536 21.0372C2.91751 21.3593 3.18041 21.6188 3.50257 21.6166C3.82473 21.6145 4.08415 21.3516 4.082 21.0294L4.06822 18.9622C5.26982 20.0087 6.69856 20.773 8.24974 21.1897C10.2741 21.7335 12.4147 21.6603 14.3972 20.9796C16.3797 20.2988 18.1138 19.0415 19.3771 17.3689C20.6404 15.6962 21.3754 13.6844 21.4878 11.5913L21.488 11.5879C21.5275 10.763 21.4737 9.93636 21.3278 9.12358C21.2709 8.80648 20.9677 8.59557 20.6506 8.65249C20.3335 8.70941 20.1226 9.01261 20.1795 9.32971C20.3098 10.0555 20.3579 10.7937 20.3228 11.5303C20.2225 13.3908 19.569 15.179 18.4461 16.6657C17.3229 18.153 15.7811 19.2709 14.0184 19.8761C12.2556 20.4814 10.3523 20.5465 8.55239 20.063C7.1867 19.6961 5.92775 19.0262 4.86592 18.1097L5.81159 18.105Z" fill="#0062E1"/>
</svg>
