<svg width="58" height="57" viewBox="0 0 58 57" fill="none" xmlns="http://www.w3.org/2000/svg">
<rect x="0.798828" width="57.0115" height="56.8331" rx="12" fill="url(#paint0_linear_218_34297)"/>
<path fill-rule="evenodd" clip-rule="evenodd" d="M25.2684 20.4258C25.5144 20.4258 25.7138 20.6246 25.7138 20.8698V21.3138H28.8316V20.8698C28.8316 20.6246 29.031 20.4258 29.277 20.4258C29.523 20.4258 29.7224 20.6246 29.7224 20.8698V21.3138H32.8402V20.8698C32.8402 20.6246 33.0396 20.4258 33.2856 20.4258C33.5316 20.4258 33.731 20.6246 33.731 20.8698V21.3138H35.958C36.3124 21.3138 36.6523 21.4541 36.9029 21.7039C37.1535 21.9537 37.2942 22.2925 37.2942 22.6458V26.0453C37.3117 26.0929 37.3213 26.1443 37.3213 26.1979V33.6539C37.3264 34.0104 37.2611 34.3644 37.1291 34.6959C36.9966 35.0284 36.7996 35.3315 36.5493 35.588C36.299 35.8444 36.0003 36.049 35.6705 36.1901C35.3407 36.3311 34.9862 36.4059 34.6273 36.4101L34.6221 36.4101L23.9221 36.4101C23.2028 36.3934 22.5194 36.0938 22.0207 35.5768C21.5229 35.0607 21.2496 34.3696 21.2601 33.6539L21.2598 22.6458C21.2598 22.2925 21.4005 21.9537 21.6511 21.7039C21.9017 21.4541 22.2416 21.3138 22.596 21.3138H24.823V20.8698C24.823 20.6246 25.0224 20.4258 25.2684 20.4258ZM36.273 22.3319C36.3565 22.4151 36.4034 22.5281 36.4034 22.6458V25.7539H22.1506V22.6458C22.1506 22.5281 22.1975 22.4151 22.281 22.3319C22.3646 22.2486 22.4778 22.2018 22.596 22.2018H24.823V23.5338C24.823 23.7791 25.0224 23.9778 25.2684 23.9778C25.5144 23.9778 25.7138 23.7791 25.7138 23.5338V22.2018H28.8316V23.5338C28.8316 23.7791 29.031 23.9778 29.277 23.9778C29.523 23.9778 29.7224 23.7791 29.7224 23.5338V22.2018H32.8402V23.5338C32.8402 23.7791 33.0396 23.9778 33.2856 23.9778C33.5316 23.9778 33.731 23.7791 33.731 23.5338V22.2018H35.958C36.0762 22.2018 36.1895 22.2486 36.273 22.3319ZM22.6629 34.9613C22.3272 34.6133 22.1432 34.147 22.1509 33.6643V26.6419H36.4305L36.4304 33.6572L36.4305 33.6642C36.4343 33.905 36.3904 34.1442 36.3012 34.3681C36.212 34.5919 36.0793 34.796 35.9108 34.9687C35.7423 35.1413 35.5413 35.279 35.3193 35.374C35.098 35.4687 34.8602 35.519 34.6194 35.5221H23.938C23.4556 35.5096 22.9974 35.3081 22.6629 34.9613Z" fill="white"/>
<defs>
<linearGradient id="paint0_linear_218_34297" x1="29.3046" y1="0" x2="29.3046" y2="56.8331" gradientUnits="userSpaceOnUse">
<stop stop-color="#0033AA"/>
<stop offset="1" stop-color="#0A2240"/>
</linearGradient>
</defs>
</svg>
