<svg width="16" height="16" viewBox="0 0 16 16" fill="none" xmlns="http://www.w3.org/2000/svg">
<g id="chevron-right">
<path id="Vector" fill-rule="evenodd" clip-rule="evenodd" d="M11.354 14.3541C11.3076 14.4006 11.2524 14.4376 11.1917 14.4628C11.1309 14.488 11.0658 14.501 11 14.501C10.9343 14.501 10.8691 14.488 10.8084 14.4628C10.7476 14.4376 10.6925 14.4006 10.646 14.3541L4.64602 8.35408C4.59946 8.30764 4.56252 8.25246 4.53731 8.19172C4.5121 8.13097 4.49913 8.06585 4.49913 8.00008C4.49913 7.93432 4.5121 7.86919 4.53731 7.80845C4.56252 7.7477 4.59946 7.69253 4.64602 7.64608L10.646 1.64608C10.7399 1.5522 10.8672 1.49945 11 1.49945C11.1328 1.49945 11.2601 1.5522 11.354 1.64608C11.4479 1.73997 11.5007 1.86731 11.5007 2.00008C11.5007 2.13286 11.4479 2.2602 11.354 2.35408L5.70702 8.00008L11.354 13.6461C11.4006 13.6925 11.4375 13.7477 11.4627 13.8084C11.4879 13.8692 11.5009 13.9343 11.5009 14.0001C11.5009 14.0659 11.4879 14.131 11.4627 14.1917C11.4375 14.2525 11.4006 14.3076 11.354 14.3541V14.3541Z" fill="#0062E1"/>
</g>
</svg>
