<svg width="32" height="32" viewBox="0 0 32 32" fill="none" xmlns="http://www.w3.org/2000/svg">
<circle cx="16" cy="16" r="13" fill="#0062E1"/>
<path fill-rule="evenodd" clip-rule="evenodd" d="M12.4453 9.19979C12.4453 8.97888 12.6244 8.7998 12.8453 8.7998H20.0453C20.2662 8.7998 20.4453 8.97888 20.4453 9.19979V10.7997C20.4453 11.0206 20.2662 11.1997 20.0453 11.1997H19.6453V12.6317C19.6453 13.2249 19.5353 13.6923 19.3493 14.0777C19.1638 14.4619 18.9136 14.7414 18.6686 14.9707C18.5591 15.0731 18.4472 15.1685 18.3448 15.2559L18.3136 15.2824C18.2 15.3794 18.0989 15.4669 18.0069 15.5573C17.8626 15.699 17.7514 15.8379 17.6754 15.9995C17.7514 16.1612 17.8626 16.3001 18.0069 16.4418C18.0989 16.5322 18.2 16.6196 18.3136 16.7166L18.3447 16.7432C18.4472 16.8306 18.5591 16.926 18.6686 17.0284C18.9136 17.2576 19.1638 17.5372 19.3493 17.9214C19.5353 18.3068 19.6453 18.7741 19.6453 19.3674V20.7994H20.0453C20.2662 20.7994 20.4453 20.9784 20.4453 21.1994V22.7993C20.4453 23.0202 20.2662 23.1993 20.0453 23.1993H12.8453C12.6244 23.1993 12.4453 23.0202 12.4453 22.7993V21.1994C12.4453 20.9784 12.6244 20.7994 12.8453 20.7994H13.2453V19.3674C13.2453 18.7741 13.3553 18.3068 13.5413 17.9214C13.7269 17.5372 13.977 17.2576 14.222 17.0284C14.3315 16.926 14.4434 16.8306 14.5459 16.7432L14.577 16.7166C14.6907 16.6196 14.7918 16.5322 14.8837 16.4418C15.028 16.3001 15.1392 16.1612 15.2153 15.9995C15.1392 15.8379 15.028 15.699 14.8837 15.5573C14.7918 15.4669 14.6907 15.3794 14.577 15.2824L14.5459 15.2559C14.4434 15.1685 14.3315 15.0731 14.222 14.9707C13.977 14.7414 13.7269 14.4619 13.5413 14.0777C13.3553 13.6923 13.2453 13.2249 13.2453 12.6317V11.1997H12.8453C12.6244 11.1997 12.4453 11.0206 12.4453 10.7997V9.19979ZM14.2618 13.7298C14.1353 13.468 14.0453 13.1223 14.0453 12.6317V11.1997H18.8453V12.6317C18.8453 13.1223 18.7553 13.468 18.6288 13.7298C18.5019 13.9929 18.327 14.1948 18.122 14.3865C18.0268 14.4756 17.9288 14.5592 17.8242 14.6484L17.7942 14.674C17.6813 14.7704 17.5605 14.8743 17.4462 14.9866C17.2142 15.2146 16.993 15.4917 16.8658 15.8731C16.8385 15.9552 16.8385 16.0439 16.8658 16.126C16.993 16.5074 17.2142 16.7845 17.4462 17.0125C17.5605 17.1247 17.6813 17.2287 17.7942 17.3251L17.8242 17.3507C17.9288 17.4399 18.0268 17.5235 18.122 17.6126C18.327 17.8043 18.5019 18.0062 18.6288 18.2692C18.7553 18.5311 18.8453 18.8767 18.8453 19.3674V20.7994H14.0453V19.3674C14.0453 18.8767 14.1353 18.5311 14.2618 18.2692C14.3888 18.0062 14.5636 17.8043 14.7686 17.6126C14.8639 17.5235 14.9618 17.4399 15.0664 17.3507L15.0964 17.3251C15.2093 17.2287 15.3301 17.1247 15.4444 17.0125C15.6764 16.7845 15.8977 16.5074 16.0248 16.126C16.0522 16.0439 16.0522 15.9552 16.0248 15.8731C15.8977 15.4917 15.6764 15.2146 15.4444 14.9866C15.3301 14.8743 15.2093 14.7704 15.0964 14.674L15.0664 14.6484C14.9618 14.5592 14.8639 14.4756 14.7686 14.3865C14.5636 14.1948 14.3888 13.9929 14.2618 13.7298ZM13.2453 10.3997V9.59978H19.6453V10.3997H13.2453ZM19.6453 21.5993V22.3993H13.2453V21.5993H19.6453Z" fill="#DFEEFD"/>
</svg>
