<svg width="32" height="32" viewBox="0 0 32 32" fill="none" xmlns="http://www.w3.org/2000/svg">
<path fill-rule="evenodd" clip-rule="evenodd" d="M2.66602 16.0003C2.66602 8.63653 8.63555 2.66699 15.9993 2.66699C23.3631 2.66699 29.3327 8.63653 29.3327 16.0003C29.3327 23.3641 23.3631 29.3337 15.9993 29.3337C8.63555 29.3337 2.66602 23.3641 2.66602 16.0003ZM22.4332 10.8275C22.7128 11.0671 22.7451 11.488 22.5055 11.7675L14.5055 21.1009C14.3847 21.2419 14.2105 21.3261 14.0249 21.3332C13.8394 21.3403 13.6593 21.2697 13.5279 21.1384L9.52794 17.1384C9.26759 16.8781 9.26759 16.4559 9.52794 16.1956C9.78829 15.9353 10.2104 15.9353 10.4708 16.1956L13.9617 19.6865L21.4932 10.8998C21.7328 10.6203 22.1537 10.5879 22.4332 10.8275Z" fill="#008533"/>
</svg>
